<?xml version="1.0" standalone="no"?>
<!DOCTYPE svg PUBLIC "-//W3C//DTD SVG 20010904//EN"
 "http://www.w3.org/TR/2001/REC-SVG-20010904/DTD/svg10.dtd">
<svg version="1.0" xmlns="http://www.w3.org/2000/svg"
 width="512.000000pt" height="512.000000pt" viewBox="0 0 512.000000 512.000000"
 preserveAspectRatio="xMidYMid meet">

<g transform="translate(0.000000,512.000000) scale(0.100000,-0.100000)"
fill="#000000" stroke="none">
<path d="M2672 4424 c-17 -16 -86 -112 -153 -213 l-121 -185 -37 100 c-55 149
-101 246 -128 272 -35 32 -95 30 -122 -4 -31 -39 -26 -72 25 -192 42 -96 132
-355 148 -424 6 -27 5 -28 -33 -28 -21 0 -121 18 -222 39 -253 54 -325 64
-469 64 -201 0 -355 -37 -520 -125 -253 -135 -453 -344 -595 -623 -180 -352
-234 -786 -150 -1199 151 -747 693 -1578 1186 -1818 213 -104 384 -112 709
-33 204 50 316 50 525 1 338 -79 494 -73 703 30 317 155 673 567 925 1069 162
324 271 686 298 988 25 286 -35 640 -152 899 -192 423 -567 735 -959 797 -85
14 -275 14 -381 0 -46 -6 -142 -24 -214 -41 -151 -34 -314 -58 -401 -58 -61 0
-62 1 -66 29 -4 25 23 72 169 293 144 219 173 269 173 299 0 47 -26 78 -71 85
-30 5 -41 2 -67 -22z m1333 -1360 c123 -58 225 -267 225 -456 -1 -115 -46
-257 -105 -327 -32 -37 -115 -81 -156 -81 -55 0 -123 33 -174 84 -183 185
-193 591 -18 745 25 23 60 46 77 51 43 13 104 7 151 -16z"/>
</g>
</svg>
